<svg width="3" height="3" viewBox="0 0 3 3" fill="none" xmlns="http://www.w3.org/2000/svg">
<path d="M0 0H1.53391C1.87326 0 2.1176 0.0814445 2.2805 0.244337C2.44339 0.407229 2.52484 0.624419 2.52484 0.923055C2.52484 1.22169 2.42981 1.46603 2.25335 1.62892C2.07688 1.80539 1.79182 1.88683 1.42531 1.88683H0.923059V2.99993H0V0ZM0.923059 1.27599H1.15382C1.33029 1.27599 1.45246 1.24884 1.53391 1.18097C1.60178 1.11309 1.6425 1.04523 1.6425 0.950205C1.6425 0.855185 1.61535 0.773736 1.54748 0.705864C1.47961 0.637992 1.37101 0.610846 1.19455 0.610846H0.936635V1.27599H0.923059Z" fill="white"/>
</svg>
