<svg width="17" height="16" viewBox="0 0 17 16" fill="none" xmlns="http://www.w3.org/2000/svg">
<path d="M11.4286 5.33333C12.641 5.33333 13.8038 5.81496 14.6611 6.67227C15.5184 7.52958 16 8.69234 16 9.90476V15.2381H12.9524V9.90476C12.9524 9.50062 12.7918 9.11304 12.5061 8.82727C12.2203 8.5415 11.8327 8.38095 11.4286 8.38095C11.0244 8.38095 10.6368 8.5415 10.3511 8.82727C10.0653 9.11304 9.90476 9.50062 9.90476 9.90476V15.2381H6.85714V9.90476C6.85714 8.69234 7.33877 7.52958 8.19608 6.67227C9.05339 5.81496 10.2162 5.33333 11.4286 5.33333Z" stroke="white" stroke-width="1.5" stroke-linecap="round" stroke-linejoin="round"/>
<path d="M3.80952 6.09524H0.761905V15.2381H3.80952V6.09524Z" stroke="white" stroke-width="1.5" stroke-linecap="round" stroke-linejoin="round"/>
<path d="M2.28571 3.80952C3.12729 3.80952 3.80952 3.12729 3.80952 2.28571C3.80952 1.44414 3.12729 0.761905 2.28571 0.761905C1.44414 0.761905 0.761905 1.44414 0.761905 2.28571C0.761905 3.12729 1.44414 3.80952 2.28571 3.80952Z" stroke="white" stroke-width="1.5" stroke-linecap="round" stroke-linejoin="round"/>
</svg>
